<?xml version="1.0" encoding="UTF-8"?>
<svg version="1.1" xmlns="http://www.w3.org/2000/svg" width="58" height="58">
<path d="M0 0 C6.22561769 4.78893668 11.82788822 10.72972497 13.18359375 18.6796875 C14.17359193 29.25637692 12.98620641 36.98711755 6.49609375 45.4296875 C1.50889569 50.8864182 -5.14215265 54.2616091 -12.48046875 54.91796875 C-22.83837279 55.17759959 -30.49545962 52.76891828 -38.125 45.6171875 C-45.02403477 37.71436707 -45.3892672 28.75530066 -44.81640625 18.6796875 C-43.57639669 10.49017382 -37.197358 3.97173217 -30.7890625 -0.84375 C-21.91390393 -5.64757863 -8.55140366 -5.10488515 0 0 Z " fill="#C5C5C5" transform="translate(44.81640625,3.3203125)"/>
<path d="M0 0 C4.62 0 9.24 0 14 0 C14.33 1.32 14.66 2.64 15 4 C15.969375 3.979375 16.93875 3.95875 17.9375 3.9375 C21 4 21 4 22 5 C22.08631874 6.34267413 22.10706473 7.68974322 22.09765625 9.03515625 C22.09443359 9.84404297 22.09121094 10.65292969 22.08789062 11.48632812 C22.07951172 12.33646484 22.07113281 13.18660156 22.0625 14.0625 C22.05798828 14.91650391 22.05347656 15.77050781 22.04882812 16.65039062 C22.03700373 18.76695663 22.01906769 20.88348685 22 23 C18.58934861 24.03974499 15.47735158 24.11508506 11.921875 24.09765625 C10.76171875 24.09443359 9.6015625 24.09121094 8.40625 24.08789062 C7.1996875 24.07951172 5.993125 24.07113281 4.75 24.0625 C3.52796875 24.05798828 2.3059375 24.05347656 1.046875 24.04882812 C-1.96879946 24.03704815 -4.98437498 24.02059853 -8 24 C-8.02888514 20.85418577 -8.04675923 17.70840531 -8.0625 14.5625 C-8.07087891 13.66466797 -8.07925781 12.76683594 -8.08789062 11.84179688 C-8.09111328 10.98779297 -8.09433594 10.13378906 -8.09765625 9.25390625 C-8.10551147 8.06776733 -8.10551147 8.06776733 -8.11352539 6.85766602 C-8 5 -8 5 -7 4 C-5.00041636 3.95919217 -2.99954746 3.95745644 -1 4 C-0.67 2.68 -0.34 1.36 0 0 Z " fill="#A1A1A1" transform="translate(22,17)"/>
<path d="M0 0 C3.0625 0.1875 3.0625 0.1875 5.0625 2.1875 C5.3125 5.1875 5.3125 5.1875 5.0625 8.1875 C3.0625 10.1875 3.0625 10.1875 0.0625 10.4375 C-2.9375 10.1875 -2.9375 10.1875 -4.9375 8.1875 C-4.24305556 0.27083333 -4.24305556 0.27083333 0 0 Z " fill="#9D9D9D" transform="translate(28.9375,25.8125)"/>
<path d="M0 0 C2.64 0 5.28 0 8 0 C8.66 1.32 9.32 2.64 10 4 C9.34 3.67 8.68 3.34 8 3 C6.00039988 2.960008 3.99952758 2.95653201 2 3 C1.61936779 5.3260857 1.28730055 7.66055264 1 10 C2.18424326 11.41577477 2.18424326 11.41577477 5.5625 11.0625 C7.2640625 11.0315625 7.2640625 11.0315625 9 11 C9 11.66 9 12.32 9 13 C5.44706507 14.14947895 4.20023331 14.0868937 0.6875 12.5625 C-0.199375 12.046875 -1.08625 11.53125 -2 11 C-2.28571429 3.57142857 -2.28571429 3.57142857 0 0 Z " fill="#C4C4C4" transform="translate(24,24)"/>
</svg>
