<?xml version="1.0" encoding="UTF-8"?>
<svg version="1.1" xmlns="http://www.w3.org/2000/svg" width="128" height="128">
<path d="M0 0 C1.9375 1.0625 1.9375 1.0625 3 3 C2.87884704 8.42149241 1.61658753 11.06640801 -2.07740784 14.75718689 C-2.64096481 15.28977615 -3.20452179 15.82236542 -3.78515625 16.37109375 C-4.36083847 16.93828629 -4.93652069 17.50547882 -5.52964783 18.08985901 C-7.36026477 19.88705745 -9.21066781 21.66219576 -11.0625 23.4375 C-12.31191599 24.65680177 -13.55997901 25.87749156 -14.80664062 27.09960938 C-17.85566489 30.08270292 -20.92260451 33.04619469 -24 36 C-22.26232613 36.00879936 -22.26232613 36.00879936 -20.48954773 36.01777649 C-9.58568122 36.07492686 1.31798437 36.14764799 12.22164631 36.23571491 C17.8276813 36.28049067 23.43364241 36.31973085 29.03979492 36.34643555 C34.44749652 36.37239668 39.85491486 36.41274786 45.26244164 36.46318626 C47.32812166 36.47990374 49.39385072 36.49138751 51.459589 36.49761391 C54.34746806 36.50720201 57.2346144 36.53519745 60.12231445 36.56762695 C60.98114731 36.56619186 61.83998016 36.56475677 62.72483826 36.5632782 C68.55797769 36.65625177 68.55797769 36.65625177 70.7197752 38.33742046 C72.69430362 40.90166586 72.39134281 42.86925749 72 46 C70.7197752 47.66257954 70.7197752 47.66257954 69 49 C65.97443332 49.31001064 63.15060336 49.43743325 60.12231445 49.43237305 C58.76103424 49.44766052 58.76103424 49.44766052 57.37225342 49.46325684 C54.36920064 49.49347833 51.36646635 49.50266678 48.36328125 49.51171875 C46.2824751 49.52855864 44.20167916 49.54670794 42.12089539 49.56611633 C36.64154248 49.6136973 31.16223098 49.64345431 25.68273926 49.66955566 C20.09244608 49.69932035 14.50229571 49.74586469 8.91210938 49.79101562 C-2.05851918 49.87714087 -13.02917705 49.94444513 -24 50 C-23.21761963 50.75619629 -22.43523926 51.51239258 -21.62915039 52.29150391 C-18.72222778 55.10773993 -15.8320374 57.94064499 -12.9465332 60.77880859 C-11.69678599 62.00345398 -10.44258228 63.22356903 -9.18383789 64.43896484 C-7.37227924 66.1896849 -5.57752198 67.95622371 -3.78515625 69.7265625 C-3.22159927 70.26431305 -2.6580423 70.8020636 -2.07740784 71.35610962 C1.31893451 74.74998754 2.87335124 77.15300186 3 82 C1.9375 84.375 1.9375 84.375 0 86 C-3.43484012 86.39195081 -5.31770225 86.45023304 -8.24008179 84.52182007 C-9.28598984 83.48307236 -9.28598984 83.48307236 -10.35302734 82.42333984 C-11.15340424 81.64187592 -11.95378113 80.86041199 -12.77841187 80.05526733 C-14.04438705 78.77107407 -14.04438705 78.77107407 -15.3359375 77.4609375 C-16.21528961 76.58732574 -17.09464172 75.71371399 -18.00064087 74.81362915 C-20.3301325 72.48926451 -22.64439541 70.15087501 -24.95446777 67.80725098 C-26.37381629 66.37619348 -27.80429853 64.95737796 -29.23974609 63.54248047 C-31.99648447 60.82278353 -34.73165261 58.08315606 -37.4609375 55.3359375 C-38.31706635 54.49195404 -39.17319519 53.64797058 -40.05526733 52.77841187 C-40.83673126 51.97803497 -41.61819519 51.17765808 -42.42333984 50.35302734 C-43.11583832 49.65575531 -43.80833679 48.95848328 -44.52182007 48.24008179 C-46.49611135 45.24817677 -46.52478674 43.52140858 -46 40 C-44.52182007 37.75991821 -44.52182007 37.75991821 -42.42333984 35.64697266 C-41.25114395 34.44640732 -41.25114395 34.44640732 -40.05526733 33.22158813 C-39.19913849 32.37760468 -38.34300964 31.53362122 -37.4609375 30.6640625 C-36.15051987 29.34503433 -36.15051987 29.34503433 -34.81362915 27.99935913 C-32.48926451 25.6698675 -30.15087501 23.35560459 -27.80725098 21.04553223 C-26.37619348 19.62618371 -24.95737796 18.19570147 -23.54248047 16.76025391 C-20.82278353 14.00351553 -18.08315606 11.26834739 -15.3359375 8.5390625 C-14.49195404 7.68293365 -13.64797058 6.82680481 -12.77841187 5.94473267 C-11.97803497 5.16326874 -11.17765808 4.38180481 -10.35302734 3.57666016 C-9.65575531 2.88416168 -8.95848328 2.19166321 -8.24008179 1.47817993 C-5.32541285 -0.44514499 -3.4265564 -0.34872278 0 0 Z " fill="#9F9F9F" transform="translate(51,21)"/>
</svg>
