<?xml version="1.0" encoding="UTF-8"?><svg id="Layer_1" xmlns="http://www.w3.org/2000/svg" viewBox="0 0 100 23.62"><path d="m9.69,18.16c-1.49,0-2.97-.01-4.46,0-1.07.01-1.92-.37-2.45-1.33-.53-.97-.46-1.93.12-2.86,1.12-1.81,2.23-3.62,3.35-5.43.14-.22.21-.44.21-.7-.01-1.3,0-2.6,0-3.89,0-.2-.03-.31-.26-.37-.38-.11-.56-.43-.53-.81.02-.37.28-.65.66-.72.1-.02.2-.02.3-.02,2.04,0,4.08,0,6.13,0,.56,0,.91.26.96.71.05.41-.14.73-.56.86-.19.06-.22.15-.22.32,0,1.36,0,2.72,0,4.08,0,.19.07.34.17.49,1.14,1.85,2.29,3.7,3.42,5.56.72,1.17.54,2.53-.42,3.45-.51.49-1.14.68-1.83.68-1.53,0-3.05,0-4.58,0Zm-2.98-7.28h5.96c-.38-.63-.73-1.22-1.1-1.79-.19-.3-.28-.6-.28-.96.01-1.39,0-2.77.01-4.16,0-.26-.05-.35-.33-.34-.86.02-1.71.02-2.57,0-.27,0-.33.07-.33.33.01,1.4,0,2.8,0,4.19,0,.33-.07.61-.25.89-.38.59-.74,1.19-1.13,1.83Z" fill="#235023" stroke-width="0"/><path d="m36.25,12.72c0,1.11-.38,2.09-1.14,2.94-.79.87-1.73,1.31-2.82,1.31-.6,0-1.49-.01-2.67-.04-1.19-.03-2.07-.04-2.66-.04-.34,0-.85.01-1.53.04-.68.03-1.19.04-1.52.04-.22,0-.32-.09-.32-.29,0-.71.04-1.79.12-3.22.08-1.43.12-2.5.12-3.22s-.04-2.17-.11-4.28c-.02-.54-.06-1.35-.11-2.43v-.14c-.02-.15.06-.23.24-.23h6.73c1.65,0,2.95.32,3.9.96.45.31.81.75,1.08,1.34.26.55.38,1.11.38,1.69,0,.46-.19,1-.58,1.61-.38.62-.57.89-.57.82,0,.05.08.14.25.27.82.62,1.23,1.57,1.23,2.86Zm-5.67-5.42c0-.51-.51-.77-1.53-.77-.23,0-.37.05-.41.16-.02.05-.03.22-.03.51s.01.46.04.53c.06.11.21.17.46.17.98,0,1.47-.2,1.47-.6Zm.33,5.03c0-.54-.6-.81-1.79-.81-.27,0-.44.05-.49.15-.02.04-.03.23-.03.56s.02.52.05.58c.07.11.24.16.53.16.54,0,.89-.01,1.05-.04.45-.08.68-.29.68-.6Z" fill="#fff" stroke-width="0"/><path d="m43.24,16.68c0,.2-.1.29-.29.29-.28,0-.71-.01-1.27-.04-.57-.03-.99-.04-1.28-.04-.27,0-.67.01-1.21.04s-.94.04-1.21.04c-.22,0-.32-.09-.32-.29,0-.8.03-2,.1-3.62.07-1.61.1-2.82.1-3.63,0-.67-.03-1.68-.09-3.03-.06-1.35-.09-2.35-.09-3.01,0-.14.08-.22.24-.22.29,0,.72.01,1.3.04.58.03,1.02.04,1.31.04.28,0,.69-.01,1.24-.04.55-.03.96-.04,1.23-.04.17,0,.26.08.26.24,0,.67-.03,1.67-.09,3.01-.06,1.34-.09,2.34-.09,3.01,0,.81.03,2.01.1,3.63.07,1.61.1,2.82.1,3.62Z" fill="#fff" stroke-width="0"/><path d="m59.12,10.08c0,2.02-.71,3.74-2.13,5.16s-3.14,2.14-5.15,2.14-3.75-.71-5.16-2.14-2.13-3.15-2.13-5.16.71-3.75,2.13-5.18,3.14-2.15,5.16-2.15,3.74.72,5.15,2.15,2.13,3.16,2.13,5.18Zm-5.03,0c0-.64-.22-1.18-.65-1.64s-.97-.68-1.6-.68-1.18.23-1.61.68c-.43.45-.65,1-.65,1.64s.22,1.16.66,1.61.97.68,1.6.68,1.16-.22,1.6-.67c.44-.45.65-.99.65-1.62Z" fill="#fff" stroke-width="0"/><path d="m70.93,12.53c0,1.34-.12,2.77-.34,4.28-.04.24-.14.35-.3.35.11,0-.37-.04-1.42-.11-1.49-.11-2.69-.17-3.58-.17-.48,0-1.2.01-2.15.04s-1.67.04-2.15.04c-.2,0-.31-.13-.33-.38.01.18.02-.05.02-.69v-5.65c0-.71-.04-1.86-.11-3.43-.06-1.51-.09-2.65-.09-3.42,0-.14.08-.22.24-.22.27,0,.69.01,1.24.04.55.03.97.04,1.24.04.29,0,.73-.02,1.32-.04.58-.03,1.02-.04,1.32-.04.1,0,.16.07.16.21v.11c-.09,1.11-.19,2.77-.29,4.99-.01.85-.02,1.52-.02,2.01,0,.55.01,1.19.04,1.93.01.25.07.38.17.38.69,0,1.45-.04,2.27-.12.93-.09,1.75-.22,2.46-.38.06-.01.11-.02.15-.02.12,0,.18.08.18.25Z" fill="#fff" stroke-width="0"/><path d="m85.96,16.82c0,.09-.13.14-.39.14-.28,0-.71-.01-1.28-.04s-1-.04-1.28-.04-.7.01-1.26.04c-.56.03-.98.04-1.26.04-.17,0-.27-.1-.29-.29,0,0,0-.15,0-.48,0-.26-.12-.39-.37-.39-1.53,0-2.42.04-2.68.12s-.42.29-.48.61c-.05.29-.16.43-.31.43-.27,0-.67-.01-1.21-.04s-.94-.04-1.21-.04-.66.01-1.19.04c-.53.03-.93.04-1.19.04-.19,0-.29-.08-.29-.25,0-.2,1.55-4.66,4.65-13.4.06-.16.11-.26.16-.3s.15-.05.3-.05c.23,0,.57.03,1.02.09.45.06.79.09,1.02.09.92,0,1.57-.05,1.94-.14.08-.03.13-.04.17-.04.11,0,.24.11.39.33.07.1.33.68.81,1.76.37.83.9,2.07,1.59,3.74.33.87.77,2.19,1.32,3.96.55,1.77.99,3.08,1.31,3.94.02.06.03.1.03.13Zm-6.55-6.34c0-.52-.29-.95-.87-1.3-.58.42-.87.85-.87,1.3,0,.23.09.43.26.6s.38.26.6.26.44-.09.61-.26c.17-.17.26-.38.26-.6Z" fill="#fff" stroke-width="0"/><path d="m99.41,12.72c0,1.11-.38,2.09-1.14,2.94-.79.87-1.73,1.31-2.82,1.31-.6,0-1.49-.01-2.67-.04s-2.07-.04-2.66-.04c-.34,0-.85.01-1.53.04s-1.19.04-1.52.04c-.22,0-.32-.09-.32-.29,0-.71.04-1.79.12-3.22.08-1.43.12-2.5.12-3.22s-.04-2.17-.11-4.28c-.02-.54-.06-1.35-.11-2.43v-.14c-.02-.15.06-.23.24-.23h6.73c1.65,0,2.95.32,3.9.96.45.31.81.75,1.08,1.34.26.55.38,1.11.38,1.69,0,.46-.19,1-.58,1.61-.38.62-.58.89-.58.82,0,.05.08.14.25.27.82.62,1.23,1.57,1.23,2.86Zm-5.67-5.42c0-.51-.51-.77-1.53-.77-.23,0-.37.05-.41.16-.02.05-.03.22-.03.51s.01.46.04.53c.06.11.21.17.46.17.98,0,1.47-.2,1.47-.6Zm.33,5.03c0-.54-.6-.81-1.79-.81-.28,0-.44.05-.49.15-.02.04-.03.23-.03.56s.02.52.05.58c.07.11.24.16.53.16.54,0,.89-.01,1.05-.04.45-.08.68-.29.68-.6Z" fill="#fff" stroke-width="0"/></svg>