<?xml version="1.0" encoding="UTF-8"?>
<svg version="1.1" xmlns="http://www.w3.org/2000/svg" width="64" height="64">
<path d="M0 0 C0.7314473 -0.00807175 1.46289459 -0.01614349 2.21650696 -0.02445984 C3.7656519 -0.03828238 5.31482706 -0.04901272 6.86401367 -0.05688477 C8.43799856 -0.06837607 10.01194535 -0.08878279 11.58569336 -0.1184082 C28.00899054 -0.42743482 28.00899054 -0.42743482 34.55078125 4.23828125 C36.609375 6.2734375 36.609375 6.2734375 37.98828125 8.30078125 C38.46136719 8.97238281 38.93445312 9.64398438 39.421875 10.3359375 C42.76249459 15.96528609 41.81271986 22.78461416 41.84594727 29.12426758 C41.85743655 30.64975279 41.87784007 32.17519877 41.9074707 33.70043945 C42.10221544 43.73033729 42.20929467 51.36309278 34.86328125 59.05078125 C26.96806123 64.26460579 19.26677547 64.68910108 9.98828125 64.55078125 C8.90353516 64.55400391 7.81878906 64.55722656 6.70117188 64.56054688 C-1.89899188 64.50310802 -9.61136492 64.01246893 -16.44921875 58.23828125 C-22.91222524 49.74903489 -22.65824493 42.42636272 -22.69921875 31.98828125 C-22.71984375 30.69019531 -22.74046875 29.39210938 -22.76171875 28.0546875 C-22.7959239 19.66587378 -22.71829495 13.01029226 -17.01171875 6.42578125 C-11.25678671 1.51303438 -7.59264536 0.0797669 0 0 Z " fill="#242124" transform="translate(22.44921875,-0.23828125)"/>
<path d="M0 0 C4.29 0 8.58 0 13 0 C12.67 0.66 12.34 1.32 12 2 C11.19030215 9.01738138 13.38849688 14.1874873 16.1015625 20.6328125 C17.14775547 24.55376181 16.63058012 26.35060639 15 30 C12.18743719 30.02684312 9.37512759 30.04676188 6.5625 30.0625 C5.76005859 30.07087891 4.95761719 30.07925781 4.13085938 30.08789062 C2.08704779 30.0965143 0.04316098 30.0522815 -2 30 C-3 29 -3 29 -3.3125 25.5625 C-3.28033625 21.05153395 -1.74939468 17.68811016 0.04296875 13.609375 C1.552979 9.49228584 1.81471111 5.35428893 2 1 C1.34 0.67 0.68 0.34 0 0 Z " fill="#999999" transform="translate(25,17)"/>
<path d="M0 0 C2.31 0 4.62 0 7 0 C7.33 4.62 7.66 9.24 8 14 C5.03 14 2.06 14 -1 14 C-0.67 11.69 -0.34 9.38 0 7 C0.99 7 1.98 7 3 7 C3 6.34 3 5.68 3 5 C2.01 4.67 1.02 4.34 0 4 C0.99 4 1.98 4 3 4 C3 3.34 3 2.68 3 2 C2.01 2 1.02 2 0 2 C0 1.34 0 0.68 0 0 Z " fill="#2A272A" transform="translate(28,18)"/>
</svg>
