<?xml version="1.0" encoding="UTF-8"?>
<svg version="1.1" xmlns="http://www.w3.org/2000/svg" width="179" height="44">
<path d="M0 0 C3.63 0 7.26 0 11 0 C11 5.94 11 11.88 11 18 C13.97 18 16.94 18 20 18 C20.33 18.33 20.66 18.66 21 19 C23.31 12.73 25.62 6.46 28 0 C31.3 0 34.6 0 38 0 C38.77900679 1.47487846 39.54767059 2.95521999 40.3125 4.4375 C40.74175781 5.26121094 41.17101562 6.08492187 41.61328125 6.93359375 C43.37673967 10.83307222 44.64664425 14.93993274 46 19 C46.33 12.73 46.66 6.46 47 0 C50.0525 -0.061875 53.105 -0.12375 56.25 -0.1875 C57.68327637 -0.22846802 57.68327637 -0.22846802 59.14550781 -0.27026367 C65.36152104 -0.33142419 65.36152104 -0.33142419 68.55859375 1.328125 C70.6653242 3.77170396 70.80561119 5.82498281 71 9 C70.70955086 10.34332728 70.39044206 11.68225804 70 13 C70.495 13.495 70.495 13.495 71 14 C71.58314004 20.18128443 71.58314004 20.18128443 69.42871094 23.20605469 C66.10995002 25.65742735 63.92547855 25.45779473 59.828125 25.390625 C58.8044986 25.38213531 58.8044986 25.38213531 57.76019287 25.37347412 C55.58940238 25.35115636 53.42028794 25.30097508 51.25 25.25 C49.7747635 25.22992876 48.29950101 25.21167907 46.82421875 25.1953125 C43.21560499 25.1513088 39.60796619 25.08231583 36 25 C36 24.34 36 23.68 36 23 C35.15743652 23.32597168 34.31487305 23.65194336 33.44677734 23.98779297 C29.72610242 25.08043486 26.72200648 25.22839322 22.8515625 25.1953125 C22.19417084 25.1924826 21.53677917 25.18965271 20.85946655 25.18673706 C18.78111767 25.17563447 16.70321634 25.15054986 14.625 25.125 C13.20703752 25.11495731 11.78906821 25.10583373 10.37109375 25.09765625 C6.91375571 25.0774379 3.45737265 25.0382735 0 25 C0 16.75 0 8.5 0 0 Z M57 6 C57 6.99 57 7.98 57 9 C57.99 8.67 58.98 8.34 60 8 C59.67 7.34 59.34 6.68 59 6 C58.34 6 57.68 6 57 6 Z M33 12 C33 12.99 33 13.98 33 15 C33.66 14.34 34.32 13.68 35 13 C34.34 12.67 33.68 12.34 33 12 Z M57 16 C57 16.66 57 17.32 57 18 C57.99 18 58.98 18 60 18 C60 17.34 60 16.68 60 16 C59.01 16 58.02 16 57 16 Z " fill="#FFFFFF" transform="translate(106,7)"/>
<path d="M0 0 C3.0525 -0.061875 6.105 -0.12375 9.25 -0.1875 C10.68327637 -0.22846802 10.68327637 -0.22846802 12.14550781 -0.27026367 C18.36152104 -0.33142419 18.36152104 -0.33142419 21.55859375 1.328125 C23.6653242 3.77170396 23.80561119 5.82498281 24 9 C23.70955086 10.34332728 23.39044206 11.68225804 23 13 C23.33 13.33 23.66 13.66 24 14 C24.57347753 20.07886186 24.57347753 20.07886186 22.62109375 23.21484375 C18.53705499 25.99637238 14.55925953 25.4237916 9.75 25.25 C4.92375 25.12625 4.92375 25.12625 0 25 C0 16.75 0 8.5 0 0 Z M10 6 C10 6.99 10 7.98 10 9 C10.99 8.67 11.98 8.34 13 8 C12.67 7.34 12.34 6.68 12 6 C11.34 6 10.68 6 10 6 Z M10 16 C10 16.66 10 17.32 10 18 C10.99 18 11.98 18 13 18 C13 17.34 13 16.68 13 16 C12.01 16 11.02 16 10 16 Z " fill="#FFFFFF" transform="translate(38,7)"/>
<path d="M0 0 C4.40617281 2.16303029 7.1644597 4.41114924 9 9 C9.71062194 13.73747957 9.47089401 17.05821199 7.3125 21.375 C3.54719793 25.64912668 0.79702011 27.17577136 -4.875 27.5625 C-9.61699554 27.39971508 -12.31461576 26.19335296 -15.65234375 22.83984375 C-18.82551597 18.50777385 -19.19417799 14.60890339 -18.5625 9.375 C-14.76089984 1.16354366 -8.89263181 -1.71689426 0 0 Z M-6 9 C-8.28728734 10.83883881 -8.28728734 10.83883881 -8.125 13.625 C-8.08375 14.40875 -8.0425 15.1925 -8 16 C-6.02 16.99 -6.02 16.99 -4 18 C-2.33378575 16.8354799 -2.33378575 16.8354799 -1 15 C-1.23043864 12.34533951 -1.23043864 12.34533951 -2 10 C-3.89179203 9.3185177 -3.89179203 9.3185177 -6 9 Z " fill="#FFFFFF" transform="translate(95,6)"/>
<path d="M0 0 C1.93166016 0.01740234 1.93166016 0.01740234 3.90234375 0.03515625 C5.19269531 0.04417969 6.48304687 0.05320313 7.8125 0.0625 C8.81152344 0.07410156 9.81054688 0.08570313 10.83984375 0.09765625 C10.77023438 0.84789062 10.700625 1.598125 10.62890625 2.37109375 C10.23703662 9.77929585 11.33810507 13.80265281 15.49609375 19.90234375 C17.25157092 22.77030354 17.49692858 24.8122321 16.83984375 28.09765625 C14.26995694 30.66754306 13.25074322 30.354724 9.68359375 30.36328125 C8.15025391 30.36714844 8.15025391 30.36714844 6.5859375 30.37109375 C5.51472656 30.36335938 4.44351562 30.355625 3.33984375 30.34765625 C1.73302734 30.35925781 1.73302734 30.35925781 0.09375 30.37109375 C-0.92847656 30.36851563 -1.95070313 30.3659375 -3.00390625 30.36328125 C-3.94427734 30.36102539 -4.88464844 30.35876953 -5.85351562 30.35644531 C-8.16015625 30.09765625 -8.16015625 30.09765625 -10.16015625 28.09765625 C-10.81971993 24.79983787 -10.55645142 22.75546015 -8.81640625 19.8671875 C-8.26984375 19.05636719 -7.72328125 18.24554687 -7.16015625 17.41015625 C-3.99375775 12.53078807 -3.63708484 8.9790271 -4.046875 3.25 C-4.10294922 2.18458984 -4.10294922 2.18458984 -4.16015625 1.09765625 C-3.16015625 0.09765625 -3.16015625 0.09765625 0 0 Z M0.83984375 4.09765625 C0.50984375 8.05765625 0.17984375 12.01765625 -0.16015625 16.09765625 C2.14984375 16.09765625 4.45984375 16.09765625 6.83984375 16.09765625 C6.50984375 12.13765625 6.17984375 8.17765625 5.83984375 4.09765625 C4.18984375 4.09765625 2.53984375 4.09765625 0.83984375 4.09765625 Z " fill="#235023" transform="translate(10.16015625,3.90234375)"/>
<path d="M0 0 C3.63 0 7.26 0 11 0 C11 8.25 11 16.5 11 25 C7.37 25 3.74 25 0 25 C0 16.75 0 8.5 0 0 Z " fill="#FFFFFF" transform="translate(64,7)"/>
</svg>
