<?xml version="1.0" encoding="UTF-8"?>
<svg version="1.1" xmlns="http://www.w3.org/2000/svg" width="256" height="256">
<path d="M0 0 C2.24928516 1.66791912 4.31222555 3.42307111 6.37890625 5.3125 C7.71695313 6.51326172 7.71695313 6.51326172 9.08203125 7.73828125 C24.58499539 22.37290996 33.08858619 41.72289964 33.73291016 63.01757812 C33.87920855 79.00833273 30.49989203 95.29442941 21.09375 108.52734375 C19.14760483 111.05204093 19.14760483 111.05204093 19.5897522 113.28529358 C20.49549956 115.61200896 21.50846087 116.79282838 23.29052734 118.53295898 C23.90141205 119.13716171 24.51229675 119.74136444 25.14169312 120.36387634 C26.13696518 121.32651146 26.13696518 121.32651146 27.15234375 122.30859375 C27.83189117 122.97915298 28.5114386 123.64971222 29.21157837 124.34059143 C31.38534766 126.48432836 33.56870857 128.6179181 35.75390625 130.75 C37.93111417 132.87932282 40.10598673 135.01083385 42.27481079 137.1486969 C43.62418717 138.47838112 44.97846979 139.80310967 46.33822632 141.12217712 C53.84637006 148.51068796 53.84637006 148.51068796 54.8125 153.59375 C54.81965318 157.65675818 54.71144056 159.7804451 52.50390625 163.3125 C49.0425233 166.57027219 46.07095109 167.11112727 41.38867188 167.00097656 C37.43139556 166.09575923 35.72939085 164.3630852 32.80859375 161.5625 C32.03702942 160.82963776 32.03702942 160.82963776 31.24987793 160.08197021 C24.75534968 153.86069126 18.49249174 147.38400591 12.27539062 140.88671875 C10.72734643 139.27251882 9.16419981 137.67434897 7.59765625 136.078125 C6.68951172 135.13743164 5.78136719 134.19673828 4.84570312 133.22753906 C2.62058232 131.07296206 2.62058232 131.07296206 0.26733398 131.40795898 C-2.87752703 132.91432098 -5.97350309 134.50132591 -9.05859375 136.125 C-28.30602112 145.99835179 -49.73251991 148.48710988 -70.62109375 142.3125 C-80.68225807 138.83258933 -89.36219539 134.08426554 -97.62109375 127.3125 C-98.59949219 126.5390625 -99.57789062 125.765625 -100.5859375 124.96875 C-110.48857761 116.65444789 -117.09007768 105.25387895 -121.62109375 93.3125 C-122.05421875 92.20132813 -122.48734375 91.09015625 -122.93359375 89.9453125 C-129.43940719 70.02125885 -126.8727593 47.67940704 -117.93359375 29.0625 C-114.36525729 22.05125339 -109.95621104 16.10686732 -104.62109375 10.3125 C-104.08226563 9.68214844 -103.5434375 9.05179688 -102.98828125 8.40234375 C-76.76878952 -20.5181509 -30.886233 -19.88502632 0 0 Z M-90.62109375 28.3125 C-100.96202059 41.96560453 -105.17998795 56.3042068 -103.62109375 73.3125 C-100.86262199 89.99547291 -92.69581364 103.24137838 -79.04296875 113.19140625 C-65.30039491 121.81292663 -50.64294426 124.99709509 -34.62109375 122.3125 C-18.74231065 118.32626383 -6.2972007 109.78539572 2.62890625 96.125 C10.34163833 82.97244314 13.17239713 68.29607766 10.16796875 53.25390625 C5.89112227 37.31100824 -3.4770034 23.97134448 -17.68359375 15.375 C-42.57550544 1.79468875 -71.62488949 7.49266013 -90.62109375 28.3125 Z " fill="#A0A0A0" transform="translate(163.62109375,51.6875)"/>
</svg>
