<?xml version="1.0" encoding="UTF-8"?>
<svg version="1.1" xmlns="http://www.w3.org/2000/svg" width="64" height="64">
<path d="M0 0 C2.25866771 -0.00436177 4.51536056 -0.04068314 6.77368164 -0.07861328 C15.47507296 -0.14826924 22.4152406 -0.04784199 29.02172852 6.37060547 C29.70428711 7.36060547 29.70428711 7.36060547 30.40063477 8.37060547 C30.8737207 9.03060547 31.34680664 9.69060547 31.83422852 10.37060547 C35.14721963 16.23998765 34.22270863 23.36454653 34.25830078 29.90478516 C34.26980152 31.3749353 34.29022349 32.8450443 34.31982422 34.31494141 C34.50738274 43.6404766 34.53375369 50.85176956 28.28735352 58.39404297 C27.47717773 59.06306641 27.47717773 59.06306641 26.65063477 59.74560547 C26.11825195 60.20708984 25.58586914 60.66857422 25.03735352 61.14404297 C17.93048121 65.34660023 10.0291345 64.70389378 2.02563477 64.68310547 C0.7887793 64.69921875 -0.44807617 64.71533203 -1.72241211 64.73193359 C-10.21329942 64.73647175 -16.0801376 63.95769662 -23.28686523 59.24560547 C-30.77548358 51.41659538 -30.63171578 42.69831755 -30.47436523 32.30810547 C-30.48004459 30.97150981 -30.48719702 29.63491956 -30.49584961 28.29833984 C-30.39891622 13.40788008 -30.39891622 13.40788008 -25.16967773 7.12841797 C-24.50709961 6.58958984 -23.84452148 6.05076172 -23.16186523 5.49560547 C-22.50444336 4.94130859 -21.84702148 4.38701172 -21.16967773 3.81591797 C-14.62759333 -0.61736267 -7.59409056 -0.0016425 0 0 Z " fill="#214F21" transform="translate(30.036865234375,-0.37060546875)"/>
<path d="M0 0 C1.65 0.33 3.3 0.66 5 1 C4.47731534 3.76276177 3.89130413 6.3260876 3 9 C3.48210938 9.30292969 3.96421875 9.60585938 4.4609375 9.91796875 C5.40839844 10.54638672 5.40839844 10.54638672 6.375 11.1875 C7.00148438 11.59355469 7.62796875 11.99960937 8.2734375 12.41796875 C11.48928925 15.36462024 11.96057389 18.28323335 12.1953125 22.55078125 C12.13020833 26.03385417 12.06510417 29.51692708 12 33 C4.08 33 -3.84 33 -12 33 C-12 28 -12 28 -10 25 C-6.875 24.8125 -6.875 24.8125 -4 25 C-4 25.66 -4 26.32 -4 27 C-0.7 26.67 2.6 26.34 6 26 C6 23.03 6 20.06 6 17 C2.58343976 16.83322718 2.58343976 16.83322718 -1 17 C-1.66 17.66 -2.32 18.32 -3 19 C-5.625 18.625 -5.625 18.625 -8 18 C-7.39733215 13.49272353 -5.63400206 10.1412037 -3.4375 6.1875 C-2.9434668 5.2912793 -2.9434668 5.2912793 -2.43945312 4.37695312 C-1.63226733 2.91466002 -0.81695083 1.4568601 0 0 Z " fill="#9A9C9A" transform="translate(34,13)"/>
</svg>
