<?xml version="1.0" encoding="UTF-8"?>
<svg version="1.1" xmlns="http://www.w3.org/2000/svg" width="64" height="63">
<path d="M0 0 C1.67787608 -0.01649734 3.35568371 -0.0437048 5.03320312 -0.08203125 C22.27182606 -0.47358599 22.27182606 -0.47358599 28.90771484 5.35009766 C35.69370608 12.49324632 35.28033644 20.06539111 35.27832031 29.38696289 C35.28268208 31.6456306 35.31900345 33.90232345 35.35693359 36.16064453 C35.47786654 51.49396585 35.47786654 51.49396585 29.49536133 57.85083008 C24.17676989 62.64326664 19.22390392 63.66367375 12.26318359 63.68603516 C11.53456619 63.69269196 10.80594879 63.69934875 10.05525208 63.70620728 C8.51806142 63.71629948 6.98082726 63.72102536 5.44360352 63.72070312 C3.11253172 63.72506525 0.78337268 63.76138622 -1.54736328 63.79931641 C-15.74904783 63.91028569 -15.74904783 63.91028569 -22.09228516 59.35009766 C-24.15087891 57.13134766 -24.15087891 57.13134766 -25.52978516 54.85009766 C-26.00287109 54.09728516 -26.47595703 53.34447266 -26.96337891 52.56884766 C-30.16775642 46.27097075 -29.35370935 39.11692586 -29.40478516 32.22509766 C-29.44829102 30.30310547 -29.44829102 30.30310547 -29.49267578 28.34228516 C-29.55018403 19.70719987 -29.10683997 11.72066017 -23.02197266 5.09619141 C-22.34392578 4.66435547 -21.66587891 4.23251953 -20.96728516 3.78759766 C-20.28408203 3.33255859 -19.60087891 2.87751953 -18.89697266 2.40869141 C-13.25839573 -0.89878554 -6.40369089 0.04608764 0 0 Z " fill="#242124" transform="translate(29.09228515625,-0.35009765625)"/>
<path d="M0 0 C0.89267578 0.01804688 1.78535156 0.03609375 2.70507812 0.0546875 C4.90863504 0.10182241 7.11002601 0.16759343 9.3125 0.25 C9.3125 3.25 9.3125 3.25 7.3125 6.25 C5.1484375 6.76171875 5.1484375 6.76171875 2.6875 6.9375 C1.46160156 7.03611328 1.46160156 7.03611328 0.2109375 7.13671875 C-0.41554688 7.17410156 -1.04203125 7.21148437 -1.6875 7.25 C-2.0175 8.57 -2.3475 9.89 -2.6875 11.25 C-5.9875 11.25 -9.2875 11.25 -12.6875 11.25 C-13.04136403 5.11635677 -13.04136403 5.11635677 -11.78125 2.03125 C-8.3101208 -0.92180021 -4.38779123 -0.1669094 0 0 Z " fill="#9C9C9C" transform="translate(31.6875,33.75)"/>
<path d="M0 0 C3.4375 1 3.4375 1 5.4375 2.6875 C6.83958688 5.9298259 6.56894192 7.67638935 5.4375 11 C2.77242902 13.29492223 1.34035284 14.04299299 -2.1875 13.875 C-4.8305138 12.90125807 -6.01627937 12.36002096 -7.5625 10 C-8.10102618 6.38418138 -7.98486225 4.65888511 -6 1.5625 C-3.5625 0 -3.5625 0 0 0 Z " fill="#9A9A9A" transform="translate(32.5625,16)"/>
<path d="M0 0 C0.721875 0.78375 1.44375 1.5675 2.1875 2.375 C4.83299041 4.84412438 6.60373611 5.93260278 10 7 C9.34 7.66 8.68 8.32 8 9 C5.375 8.625 5.375 8.625 3 8 C3 7.34 3 6.68 3 6 C2.01 5.67 1.02 5.34 0 5 C-0.99 6.98 -1.98 8.96 -3 11 C-4.5 9.625 -4.5 9.625 -6 8 C-6 7.34 -6 6.68 -6 6 C-7.98 6 -9.96 6 -12 6 C-12 5.34 -12 4.68 -12 4 C-9.69 4 -7.38 4 -5 4 C-5 4.66 -5 5.32 -5 6 C-2.24616077 4.62308038 -1.48516899 2.63279958 0 0 Z " fill="#979797" transform="translate(43,39)"/>
<path d="M0 0 C3.34373475 0.55728913 6.03312999 1.35173889 9 3 C7.02 3.33 5.04 3.66 3 4 C2.67 3.01 2.34 2.02 2 1 C1.34 0.67 0.68 0.34 0 0 Z " fill="#878687" transform="translate(44,44)"/>
</svg>
