<?xml version="1.0" encoding="UTF-8"?>
<svg version="1.1" xmlns="http://www.w3.org/2000/svg" width="64" height="63">
<path d="M0 0 C2.3775587 0.01388818 4.75118909 -0.02029234 7.12841797 -0.05834961 C20.81306774 -0.12881445 20.81306774 -0.12881445 26.46069336 4.1484375 C34.0952689 11.81710182 34.12372092 19.20343729 34.17749023 29.46240234 C34.18897952 30.98788755 34.20938304 32.51333353 34.23901367 34.03857422 C34.54593144 49.84569641 34.54593144 49.84569641 29.88232422 56.57641602 C25.20819613 61.41919415 21.05463173 63.77781215 14.29803467 63.90560913 C13.57819397 63.90783478 12.85835327 63.91006042 12.11669922 63.91235352 C11.36447083 63.91901031 10.61224243 63.92566711 9.83721924 63.93252563 C8.24697303 63.94263427 6.65668455 63.94734321 5.06640625 63.94702148 C2.65405734 63.95137678 0.24356624 63.9876618 -2.16845703 64.02563477 C-16.84544519 64.13660379 -16.84544519 64.13660379 -23.11767578 59.57641602 C-25.17626953 57.35766602 -25.17626953 57.35766602 -26.55517578 55.07641602 C-27.02826172 54.32360352 -27.50134766 53.57079102 -27.98876953 52.79516602 C-31.21339264 46.45749846 -30.34046313 39.25883984 -30.36767578 32.32641602 C-30.38830078 31.02833008 -30.40892578 29.73024414 -30.43017578 28.39282227 C-30.46439564 20.00040183 -29.87034526 14.06224776 -25.43017578 6.82641602 C-18.02888525 -0.37483964 -9.70242934 -0.07916669 0 0 Z " fill="#242124" transform="translate(30.11767578125,-0.576416015625)"/>
<path d="M0 0 C1.875 1 1.875 1 3.375 2.625 C3.87 3.07875 4.365 3.5325 4.875 4 C6.97731241 3.99530794 6.97731241 3.99530794 8.875 3 C9.535 2.01 10.195 1.02 10.875 0 C14.66633356 0.54161908 16.53609564 1.99283725 18.875 5 C19.25 7.625 19.25 7.625 18.875 10 C16.875 12 16.875 12 14.55249023 12.24291992 C13.60575439 12.23881104 12.65901855 12.23470215 11.68359375 12.23046875 C10.65685547 12.22853516 9.63011719 12.22660156 8.57226562 12.22460938 C7.49654297 12.21236328 6.42082031 12.20011719 5.3125 12.1875 C4.23291016 12.18685547 3.15332031 12.18621094 2.04101562 12.18554688 C-5.98485402 12.14014598 -5.98485402 12.14014598 -7.125 11 C-7.5 8.25 -7.5 8.25 -7.125 5 C-3.29521277 0 -3.29521277 0 0 0 Z " fill="#999999" transform="translate(26.125,33)"/>
<path d="M0 0 C4.36689189 1.42398649 4.36689189 1.42398649 5.875 3.9375 C6.43500852 8.17756449 6.08472443 10.49385216 4.25 14.375 C1.875 16.9375 1.875 16.9375 -1.125 17.6875 C-4.125 16.9375 -4.125 16.9375 -6.5 14.375 C-8.35992959 10.44053357 -8.84046373 8.2302824 -8.125 3.9375 C-5.45043116 0.79094842 -4.15592269 -0.08311845 0 0 Z " fill="#9C9C9C" transform="translate(33.125,16.0625)"/>
<path d="M0 0 C1.98 0.495 1.98 0.495 4 1 C3.67 2.32 3.34 3.64 3 5 C1.68 4.67 0.36 4.34 -1 4 C-0.67 2.68 -0.34 1.36 0 0 Z " fill="#373537" transform="translate(37,38)"/>
</svg>
