<?xml version="1.0" encoding="UTF-8"?>
<svg version="1.1" xmlns="http://www.w3.org/2000/svg" width="64" height="64">
<path d="M0 0 C0.98484375 -0.01160156 1.9696875 -0.02320313 2.984375 -0.03515625 C12.25005429 0.00240731 12.25005429 0.00240731 16 3.375 C16.8125 6.5625 16.8125 6.5625 17 9.375 C17.74765625 9.32859375 18.4953125 9.2821875 19.265625 9.234375 C20.25046875 9.19828125 21.2353125 9.1621875 22.25 9.125 C23.22453125 9.07859375 24.1990625 9.0321875 25.203125 8.984375 C28 9.375 28 9.375 30.14379883 10.87573242 C32.73895737 14.36996339 32.55641688 17.56943831 32.49609375 21.75390625 C32.49754898 22.5623851 32.49900421 23.37086395 32.50050354 24.20384216 C32.4988466 25.90928764 32.48730811 27.61474838 32.46655273 29.32006836 C32.43755969 31.93212227 32.44595438 34.54215077 32.45898438 37.15429688 C32.45274782 38.81250987 32.44435752 40.47071646 32.43359375 42.12890625 C32.43652939 42.91020401 32.43946503 43.69150177 32.44248962 44.49647522 C32.34888023 49.86639913 32.34888023 49.86639913 30.66040039 52.32788086 C27.45171955 54.35141154 24.65226742 54.50822425 20.96533203 54.53613281 C19.94061798 54.54574036 18.91590393 54.5553479 17.86013794 54.56524658 C16.75387054 54.56949646 15.64760315 54.57374634 14.5078125 54.578125 C12.80067581 54.58667511 12.80067581 54.58667511 11.05905151 54.59539795 C8.64989146 54.60484879 6.24071848 54.61138226 3.83154297 54.61523438 C0.14658063 54.62494314 -3.53782477 54.65596781 -7.22265625 54.6875 C-9.56249669 54.69402977 -11.90234111 54.69928034 -14.2421875 54.703125 C-15.34440643 54.7154718 -16.44662537 54.7278186 -17.58224487 54.74053955 C-18.61326324 54.73753845 -19.64428162 54.73453735 -20.70654297 54.73144531 C-21.61016571 54.73509094 -22.51378845 54.73873657 -23.4447937 54.74249268 C-26.85357502 54.25223787 -29.55094495 52.82405505 -32 50.375 C-32.13825913 47.68285628 -32.21314259 45.0182025 -32.23828125 42.32421875 C-32.246353 41.51386673 -32.25442474 40.70351471 -32.26274109 39.86860657 C-32.27659821 38.1494868 -32.28731305 36.43033932 -32.29516602 34.71118164 C-32.31236182 32.08361443 -32.35622923 29.45731087 -32.40039062 26.83007812 C-32.41051872 25.16146761 -32.41903446 23.49284637 -32.42578125 21.82421875 C-32.44328934 21.03867111 -32.46079742 20.25312347 -32.47883606 19.44377136 C-32.46461791 15.86082285 -32.30859301 13.792221 -30.14819336 10.87133789 C-27.35130016 8.92314396 -25.62420157 8.96432373 -22.25 9.125 C-21.26515625 9.16109375 -20.2803125 9.1971875 -19.265625 9.234375 C-18.51796875 9.28078125 -17.7703125 9.3271875 -17 9.375 C-16.9071875 7.9828125 -16.9071875 7.9828125 -16.8125 6.5625 C-16 3.375 -16 3.375 -14.13671875 1.69921875 C-9.45372023 -0.2777881 -5.0297393 -0.05925086 0 0 Z M-10.44140625 20.84375 C-14.11758147 25.11691093 -15.30733355 27.60854233 -15.21484375 33.28125 C-14.74435645 37.86636259 -12.7875653 40.66427034 -9.4375 43.6875 C-4.72248449 46.95174151 -0.64125661 47.00758331 5 46.375 C10.13308791 43.76179161 13.1797908 40.83562759 15 35.375 C15.50201239 29.25044882 15.09928344 26.24982354 11 21.375 C7.41551413 17.58568637 4.27166855 16.61721267 -0.79296875 16.28125 C-4.88084468 16.45489429 -7.60283984 17.95133545 -10.44140625 20.84375 Z " fill="#A0A0A0" transform="translate(32,4.625)"/>
<path d="M0 0 C3.07933335 2.01099321 4.49196824 3.41519652 5.62109375 6.9375 C6.24070841 10.31024781 6.1452985 12.65587196 4.8125 15.8125 C1.64448456 19.63596691 0.20643515 20.84433095 -4.875 21.5 C-8.2162335 21.34386759 -9.3483821 20.80363918 -12.4375 19.0625 C-15.73131058 15.12599467 -16.4144835 12.07512013 -16 7 C-12.8521937 -0.39734481 -7.32314631 -1.10956762 0 0 Z " fill="#A0A0A0" transform="translate(37,26)"/>
</svg>
