<?xml version="1.0" encoding="UTF-8"?>
<svg version="1.1" xmlns="http://www.w3.org/2000/svg" width="64" height="64">
<path d="M0 0 C0.7314473 -0.00807175 1.46289459 -0.01614349 2.21650696 -0.02445984 C3.7656519 -0.03828238 5.31482706 -0.04901272 6.86401367 -0.05688477 C8.43799856 -0.06837607 10.01194535 -0.08878279 11.58569336 -0.1184082 C28.00899054 -0.42743482 28.00899054 -0.42743482 34.55078125 4.23828125 C36.609375 6.2734375 36.609375 6.2734375 37.98828125 8.30078125 C38.46136719 8.97238281 38.93445312 9.64398438 39.421875 10.3359375 C42.76249459 15.96528609 41.81271986 22.78461416 41.84594727 29.12426758 C41.85743655 30.64975279 41.87784007 32.17519877 41.9074707 33.70043945 C42.09155175 43.18112752 42.22479626 50.59459879 35.875 58.26171875 C35.06482422 58.93074219 35.06482422 58.93074219 34.23828125 59.61328125 C33.70589844 60.07476562 33.17351563 60.53625 32.625 61.01171875 C25.66922307 65.1249277 18.01262438 64.57203082 10.17578125 64.55078125 C8.995 64.56689453 7.81421875 64.58300781 6.59765625 64.59960938 C-1.60818772 64.60417833 -9.10591918 64.02663696 -15.82421875 58.92578125 C-23.45753272 51.11072171 -22.65896145 42.2438281 -22.69921875 31.98828125 C-22.71984375 30.69019531 -22.74046875 29.39210938 -22.76171875 28.0546875 C-22.82251974 13.14324381 -22.82251974 13.14324381 -17.29296875 6.7421875 C-16.51953125 6.10152344 -15.74609375 5.46085938 -14.94921875 4.80078125 C-13.7890625 3.81271484 -13.7890625 3.81271484 -12.60546875 2.8046875 C-8.61796428 -0.09203224 -4.73132518 0.04970641 0 0 Z " fill="#214F21" transform="translate(22.44921875,-0.23828125)"/>
<path d="M0 0 C2.375 1.0625 2.375 1.0625 4 3 C4.3125 6.625 4.3125 6.625 4 10 C3.67 10.33 3.34 10.66 3 11 C6.3 11.33 9.6 11.66 13 12 C13.33 12.99 13.66 13.98 14 15 C13.34 15 12.68 15 12 15 C12.33 18.3 12.66 21.6 13 25 C11.68 25.33 10.36 25.66 9 26 C8.67 26.66 8.34 27.32 8 28 C10.31 28 12.62 28 15 28 C14.67 29.65 14.34 31.3 14 33 C9.71 33 5.42 33 1 33 C0.34 31.68 -0.32 30.36 -1 29 C0.375 25.75 0.375 25.75 2 23 C2.66 23 3.32 23 4 23 C4 20.36 4 17.72 4 15 C3.01 15 2.02 15 1 15 C1 14.34 1 13.68 1 13 C0.113125 13.268125 -0.77375 13.53625 -1.6875 13.8125 C-5 14 -5 14 -7.875 11.875 C-10 9 -10 9 -10.5625 6.4375 C-9.22528968 0.64292194 -5.58233986 -0.81409123 0 0 Z " fill="#9A9C9A" transform="translate(32,15)"/>
<path d="M0 0 C0.66 0.33 1.32 0.66 2 1 C2.59720137 6.82271337 0.528243 10.9209404 -2 16 C-3.47906892 16.02689216 -4.95827483 16.04634621 -6.4375 16.0625 C-7.67306641 16.07990234 -7.67306641 16.07990234 -8.93359375 16.09765625 C-11 16 -11 16 -12 15 C-12.58618935 10.99313607 -13.11768502 6.75580969 -10.87109375 3.2265625 C-7.41558332 0.10487422 -4.52325418 -0.61680739 0 0 Z " fill="#979A97" transform="translate(32,30)"/>
<path d="M0 0 C2.375 1.0625 2.375 1.0625 4 3 C4.5625 6.4375 4.5625 6.4375 4 10 C1.875 12.5 1.875 12.5 -1 14 C-4.56090901 14 -6.25697245 13.69349238 -8.875 11.25 C-10.24863504 8.50272993 -10.53062116 7.03212094 -10 4 C-7.15185518 -0.05312917 -4.84199177 -0.7061238 0 0 Z " fill="#9C9D9C" transform="translate(32,15)"/>
<path d="M0 0 C3.96 0 7.92 0 12 0 C12.33 0.99 12.66 1.98 13 3 C12.34 3 11.68 3 11 3 C11 5.31 11 7.62 11 10 C8.69 9.67 6.38 9.34 4 9 C3.67 7.35 3.34 5.7 3 4 C2.01 3.67 1.02 3.34 0 3 C0 2.01 0 1.02 0 0 Z " fill="#929792" transform="translate(33,27)"/>
<path d="M0 0 C1.32 0 2.64 0 4 0 C4 1.98 4 3.96 4 6 C2.68 6 1.36 6 0 6 C0 4.02 0 2.04 0 0 Z " fill="#2E502E" transform="translate(38,30)"/>
</svg>
