<?xml version="1.0" encoding="UTF-8"?>
<svg version="1.1" xmlns="http://www.w3.org/2000/svg" width="64" height="64">
<path d="M0 0 C2.03228685 0.00315497 4.06310792 -0.0203206 6.09521484 -0.0456543 C21.04650164 -0.05306326 21.04650164 -0.05306326 27.41162109 5.14770508 C27.95044922 5.80125977 28.48927734 6.45481445 29.04443359 7.12817383 C29.87587891 8.0969043 29.87587891 8.0969043 30.72412109 9.08520508 C34.95930634 15.62112609 34.50949967 22.6352344 34.48510742 30.14624023 C34.48195245 32.17852708 34.50542802 34.20934816 34.53076172 36.24145508 C34.53820913 51.27032413 34.53820913 51.27032413 29.30224609 57.55786133 C28.30837891 58.36610352 28.30837891 58.36610352 27.29443359 59.19067383 C26.63701172 59.7449707 25.97958984 60.29926758 25.30224609 60.87036133 C18.86772662 65.23074998 12.03046314 64.68794816 4.55981445 64.6862793 C2.3735492 64.69064068 0.18932509 64.72696247 -1.99658203 64.76489258 C-10.60213189 64.83547325 -17.04182598 64.4480425 -23.85400391 58.56958008 C-24.30001953 58.01141602 -24.74603516 57.45325195 -25.20556641 56.87817383 C-25.66705078 56.32258789 -26.12853516 55.76700195 -26.60400391 55.19458008 C-30.75790335 48.83144113 -30.20280513 42.0173269 -30.20117188 34.70605469 C-30.20553326 32.51978944 -30.24185505 30.33556532 -30.27978516 28.1496582 C-30.350402 19.53218507 -29.92505782 13.15801756 -24.11962891 6.29223633 C-23.57048828 5.8462207 -23.02134766 5.40020508 -22.45556641 4.94067383 C-21.91158203 4.47918945 -21.36759766 4.01770508 -20.80712891 3.54223633 C-14.33121824 -0.47641179 -7.35631736 -0.02388989 0 0 Z " fill="#242124" transform="translate(29.83056640625,-0.315673828125)"/>
<path d="M0 0 C0.33 1.65 0.66 3.3 1 5 C1.5775 4.855625 2.155 4.71125 2.75 4.5625 C4.83333333 4.04166667 6.91666667 3.52083333 9 3 C9.33 3.66 9.66 4.32 10 5 C10.99 5.33 11.98 5.66 13 6 C12.42415568 8.38564077 11.77772405 10.66682784 11 13 C12.485 13.495 12.485 13.495 14 14 C14 14.66 14 15.32 14 16 C14.66 16 15.32 16 16 16 C16 17.65 16 19.3 16 21 C14.35 21.66 12.7 22.32 11 23 C11 24.32 11 25.64 11 27 C11.66 27 12.32 27 13 27 C13 30 13 30 11.1875 32.1875 C9 34 9 34 6 34 C6 33.34 6 32.68 6 32 C4.68 32 3.36 32 2 32 C1.34 33.32 0.68 34.64 0 36 C-3.465 35.505 -3.465 35.505 -7 35 C-7.495 33.515 -7.495 33.515 -8 32 C-8.8971875 32.495 -8.8971875 32.495 -9.8125 33 C-12 34 -12 34 -15 34 C-15.495 32.515 -15.495 32.515 -16 31 C-16.66 30.67 -17.32 30.34 -18 30 C-17.33333333 27.33333333 -16.66666667 24.66666667 -16 22 C-17.32 22 -18.64 22 -20 22 C-20 19.36 -20 16.72 -20 14 C-18.68 14 -17.36 14 -16 14 C-16.144375 13.4225 -16.28875 12.845 -16.4375 12.25 C-16.623125 11.5075 -16.80875 10.765 -17 10 C-17.2475 9.319375 -17.495 8.63875 -17.75 7.9375 C-18 6 -18 6 -16.8125 4.1875 C-15 3 -15 3 -13.0625 3.25 C-12.381875 3.4975 -11.70125 3.745 -11 4 C-10.2575 4.185625 -9.515 4.37125 -8.75 4.5625 C-8.1725 4.706875 -7.595 4.85125 -7 5 C-7 3.68 -7 2.36 -7 1 C-4.53721199 -0.231394 -2.7204945 -0.07159196 0 0 Z " fill="#9B9B9B" transform="translate(34,14)"/>
<path d="M0 0 C0.99 0.66 1.98 1.32 3 2 C3.328125 4.56640625 3.328125 4.56640625 3.25 7.5625 C3.23453125 8.55378906 3.2190625 9.54507813 3.203125 10.56640625 C3 13 3 13 2 14 C0.19187276 14.15091913 -1.62330617 14.22169008 -3.4375 14.25 C-4.42621094 14.27578125 -5.41492188 14.3015625 -6.43359375 14.328125 C-7.28050781 14.21984375 -8.12742187 14.1115625 -9 14 C-11.54772167 10.17841749 -11.56866675 7.47475477 -11 3 C-8.92204961 -1.15590077 -4.10731106 -0.63762692 0 0 Z " fill="#272427" transform="translate(35,25)"/>
</svg>
