<?xml version="1.0" encoding="UTF-8"?>
<svg version="1.1" xmlns="http://www.w3.org/2000/svg" width="64" height="63">
<path d="M0 0 C0.77159454 -0.00761353 1.54318909 -0.01522705 2.33816528 -0.02307129 C3.96352927 -0.03383053 5.58896215 -0.03674244 7.21435547 -0.03222656 C9.68185545 -0.0312553 12.14623027 -0.07289574 14.61328125 -0.1171875 C22.8836503 -0.17965664 29.29437386 -0.20340651 35.8203125 5.46875 C42.53838892 12.3636179 42.22150562 20.55861951 42.24584961 29.61669922 C42.25770639 31.70010457 42.30691684 33.78050286 42.35742188 35.86328125 C42.45678387 43.99535637 41.78478561 50.76963058 36.8203125 57.46875 C31.48499367 62.51121861 26.48826342 63.63225961 19.37109375 63.70703125 C18.63964645 63.715103 17.90819916 63.72317474 17.15458679 63.73149109 C15.60544185 63.74531363 14.05626669 63.75604397 12.50708008 63.76391602 C10.93309519 63.77540732 9.3591484 63.79581404 7.78540039 63.82543945 C-10.07432107 64.16149434 -10.07432107 64.16149434 -16.67797852 58.09155273 C-23.04735419 51.16193405 -22.52291942 42.96745033 -22.49536133 34.15600586 C-22.49220106 32.04032858 -22.51569937 29.92605182 -22.54101562 27.81054688 C-22.54328919 26.44791841 -22.54399185 25.08528623 -22.54296875 23.72265625 C-22.54744019 21.88682983 -22.54744019 21.88682983 -22.55200195 20.01391602 C-21.84027385 13.23686435 -18.8899174 8.28852013 -14.1796875 3.46875 C-9.482218 0.56445164 -5.4106287 0.00149002 0 0 Z " fill="#242124" transform="translate(22.1796875,-0.46875)"/>
<path d="M0 0 C4.18423892 3.50897269 8.19588166 7.08060535 12 11 C10.6696875 11.061875 10.6696875 11.061875 9.3125 11.125 C5.62097575 12.10011961 4.46986009 13.36463937 2.2265625 16.375 C0.38424921 18.81577175 -1.8122246 20.87135366 -4 23 C-4.66 23.66 -5.32 24.32 -6 25 C-8.68839385 25.26991906 -11.29141936 25.08737357 -14 25 C-13.67 22.36 -13.34 19.72 -13 17 C-9.25 15.875 -9.25 15.875 -7 17 C-7.33 15.35 -7.66 13.7 -8 12 C-7.01 11.34 -6.02 10.68 -5 10 C-4.67 9.34 -4.34 8.68 -4 8 C-2.35 8.33 -0.7 8.66 1 9 C1 8.34 1 7.68 1 7 C0.34 7 -0.32 7 -1 7 C-1 6.34 -1 5.68 -1 5 C-0.34 5 0.32 5 1 5 C1 4.01 1 3.02 1 2 C0.34 1.67 -0.32 1.34 -1 1 C-0.67 0.67 -0.34 0.34 0 0 Z " fill="#999999" transform="translate(32,19)"/>
<path d="M0 0 C1.98 0.495 1.98 0.495 4 1 C4 1.66 4 2.32 4 3 C4.66 3 5.32 3 6 3 C7.625 4.375 7.625 4.375 9 6 C9 6.66 9 7.32 9 8 C8.01 8 7.02 8 6 8 C5.34 7.34 4.68 6.68 4 6 C3.34 6 2.68 6 2 6 C2 6.66 2 7.32 2 8 C1.01 8 0.02 8 -1 8 C-1 7.34 -1 6.68 -1 6 C-0.34 5.67 0.32 5.34 1 5 C0.67 3.35 0.34 1.7 0 0 Z " fill="#8F8F8F" transform="translate(40,15)"/>
</svg>
